<svg width="40" height="41" viewBox="0 0 40 41" fill="none" xmlns="http://www.w3.org/2000/svg">
<path d="M17.0465 28.3848C16.3742 28.3848 15.8167 27.8273 15.8167 27.155C15.8167 24.4167 15.8167 21.0061 21.9656 21.0061H28.5245C32.2138 21.0061 32.2138 20.5142 32.2138 17.3168V14.0373C32.2138 10.8399 32.2138 10.348 28.5245 10.348H26.8848C26.2125 10.348 25.655 9.79049 25.655 9.11821C25.655 8.44593 26.2125 7.88843 26.8848 7.88843H28.5245C34.2635 7.88843 34.6734 10.2168 34.6734 14.0373V17.3168C34.6734 21.1373 34.2635 23.4657 28.5245 23.4657H21.9656C18.2763 23.4657 18.2763 24.4659 18.2763 27.155C18.2763 27.8273 17.7188 28.3848 17.0465 28.3848Z" fill="#29323B"/>
<path d="M20.3259 15.2671H13.7671C13.2424 15.2671 12.7669 14.9227 12.6029 14.4308C11.4715 11.0038 11.4715 7.23248 12.6029 3.82189C12.7669 3.31358 13.2424 2.96924 13.7671 2.96924H20.3259C20.8506 2.96924 21.3262 3.31358 21.4901 3.80549C22.6379 7.23248 22.6379 11.0038 21.4901 14.4144C21.3262 14.9227 20.867 15.2671 20.3259 15.2671ZM14.6853 12.8075H19.4241C20.0636 10.3971 20.0636 7.83917 19.4241 5.4288H14.6853C14.0459 7.83917 14.0459 10.3971 14.6853 12.8075Z" fill="#29323B"/>
<path d="M13.7671 15.2671H12.1274C8.1593 15.2671 5.97849 13.0862 5.97849 9.11814C5.97849 5.15005 8.1593 2.96924 12.1274 2.96924H13.7671C14.1934 2.96924 14.587 3.1824 14.8165 3.55953C15.0461 3.92027 15.0625 4.37939 14.8657 4.75652C13.39 7.6916 13.39 10.5611 14.8657 13.4962C15.0625 13.8733 15.0297 14.3324 14.8165 14.6932C14.587 15.0539 14.1934 15.2671 13.7671 15.2671ZM11.9306 5.4288C9.48746 5.49439 8.43805 6.59299 8.43805 9.11814C8.43805 11.6269 9.48746 12.7419 11.9142 12.8075C11.0944 10.3479 11.0944 7.88836 11.9306 5.4288Z" fill="#29323B"/>
<path d="M21.9656 15.2671H20.3259C19.8996 15.2671 19.5061 15.0539 19.2765 14.6768C19.047 14.316 19.0306 13.8569 19.2273 13.4798C20.6867 10.5447 20.6867 7.6752 19.2273 4.74012C19.0306 4.36299 19.0634 3.90387 19.2765 3.54314C19.5061 3.1824 19.8996 2.96924 20.3259 2.96924H21.9656C25.9337 2.96924 28.1146 5.15005 28.1146 9.11814C28.1146 13.0862 25.9337 15.2671 21.9656 15.2671ZM22.1624 5.4288C22.9823 7.88836 22.9823 10.3479 22.1624 12.8075C24.6056 12.7419 25.6386 11.6433 25.6386 9.11814C25.655 6.59299 24.6056 5.49439 22.1624 5.4288Z" fill="#29323B"/>
<path d="M17.8664 38.2231H16.2267C14.5378 38.2231 12.5373 37.5836 12.5373 34.5338V29.6146C12.5373 26.5648 14.5378 25.9253 16.2267 25.9253H17.8664C19.5553 25.9253 21.5557 26.5648 21.5557 29.6146V34.5338C21.5557 37.5836 19.5553 38.2231 17.8664 38.2231ZM16.2267 28.3849C14.9969 28.3849 14.9969 28.7456 14.9969 29.6146V34.5338C14.9969 35.4028 14.9969 35.7635 16.2267 35.7635H17.8664C19.0961 35.7635 19.0961 35.4028 19.0961 34.5338V29.6146C19.0961 28.7456 19.0961 28.3849 17.8664 28.3849H16.2267Z" fill="#29323B"/>
</svg>
