<svg width="29" height="25" viewBox="0 0 29 25" fill="none" xmlns="http://www.w3.org/2000/svg">
<path d="M14.223 24.9386C13.8215 24.9386 13.4329 24.8881 13.1091 24.7743C8.16113 23.1186 0.298828 17.2416 0.298828 8.55884C0.298828 4.13529 3.96445 0.545898 8.47199 0.545898C10.661 0.545898 12.7075 1.38005 14.223 2.87142C15.7385 1.38005 17.785 0.545898 19.974 0.545898C24.4815 0.545898 28.1472 4.14793 28.1472 8.55884C28.1472 17.2543 20.2849 23.1186 15.3369 24.7743C15.0131 24.8881 14.6245 24.9386 14.223 24.9386ZM8.47199 2.44171C5.03952 2.44171 2.24174 5.18431 2.24174 8.55884C2.24174 17.1911 10.7517 21.9938 13.7437 22.9923C13.9769 23.0681 14.4821 23.0681 14.7152 22.9923C17.6943 21.9938 26.2172 17.2037 26.2172 8.55884C26.2172 5.18431 23.4194 2.44171 19.987 2.44171C18.0181 2.44171 16.1918 3.33905 15.0131 4.89362C14.6504 5.37389 13.8215 5.37389 13.4588 4.89362C12.2542 3.32642 10.4408 2.44171 8.47199 2.44171Z" fill="white"/>
</svg>
