<svg width="39" height="38" viewBox="0 0 39 38" fill="none" xmlns="http://www.w3.org/2000/svg">
<path d="M36.0563 11.5188L23.7751 1.69378C21.3751 -0.218716 17.6251 -0.237466 15.2438 1.67503L2.96255 11.5188C1.20005 12.925 0.131303 15.7375 0.506303 17.95L2.8688 32.0875C3.41255 35.2563 6.3563 37.75 9.56255 37.75H29.4376C32.6063 37.75 35.6063 35.2 36.1501 32.0688L38.5126 17.9313C38.8501 15.7375 37.7813 12.925 36.0563 11.5188ZM20.9063 30.25C20.9063 31.0188 20.2688 31.6563 19.5001 31.6563C18.7313 31.6563 18.0938 31.0188 18.0938 30.25V24.625C18.0938 23.8563 18.7313 23.2188 19.5001 23.2188C20.2688 23.2188 20.9063 23.8563 20.9063 24.625V30.25Z" fill="#A8A8A8"/>
</svg>
