<svg width="38" height="38" viewBox="0 0 38 38" fill="none" xmlns="http://www.w3.org/2000/svg">
<path d="M37.8249 0.526704C37.6936 0.207981 37.3816 0 37.0373 0C3.96072 0 0.389648 13.708 0.389648 19.6022C0.389648 21.7227 0.860102 23.7033 1.7891 25.488C1.93229 25.7641 2.21521 25.9397 2.52547 25.9466C2.81862 25.938 3.1272 25.7915 3.28228 25.5204C5.51526 21.6613 11.8391 12.1363 22.2829 7.07558C22.7107 6.87104 23.2221 7.04658 23.4249 7.46766C23.6294 7.89209 23.4521 8.40345 23.0294 8.608C22.2419 8.98984 21.4851 9.40572 20.7437 9.83694C20.4607 10.0023 20.1863 10.1779 19.9085 10.35C19.4908 10.6091 19.0784 10.8733 18.6761 11.146C18.2755 11.4154 17.88 11.6915 17.4914 11.9744C17.3703 12.0631 17.2545 12.1534 17.1351 12.2438C6.74078 19.9892 0.389648 32.3454 0.389648 36.6477C0.389648 37.1182 0.771493 37.5 1.24195 37.5C1.7124 37.5 2.09424 37.1182 2.09424 36.6477C2.09424 35.2738 3.03004 32.4886 4.80103 29.1665C7.37151 31.2682 10.83 32.3864 14.8783 32.3864C25.8232 32.3864 28.1158 21.9716 29.3465 16.3756C31.0033 8.8449 34.6493 4.4455 37.6391 1.45403C37.8845 1.21025 37.9561 0.845427 37.8249 0.526704Z" fill="url(#paint0_linear_622_1592)"/>
<defs>
<linearGradient id="paint0_linear_622_1592" x1="5.90256" y1="-24.0234" x2="58.2753" y2="-21.8064" gradientUnits="userSpaceOnUse">
<stop stop-color="#6747E7"/>
<stop offset="1" stop-color="#00FFF0"/>
</linearGradient>
</defs>
</svg>
