<svg width="55" height="55" viewBox="0 0 55 55" fill="none" xmlns="http://www.w3.org/2000/svg">
<path d="M44.3208 33.2063L42.0291 29.4021C41.5479 28.5542 41.1125 26.95 41.1125 26.0105V20.2125C41.1125 14.8271 37.95 10.175 33.3895 7.99796C32.1979 5.88962 29.9979 4.58337 27.477 4.58337C24.9791 4.58337 22.7333 5.93546 21.5416 8.06671C17.0729 10.2896 13.9791 14.8959 13.9791 20.2125V26.0105C13.9791 26.95 13.5437 28.5542 13.0625 29.3792L10.7479 33.2063C9.8312 34.7417 9.62495 36.4375 10.1979 37.9959C10.7479 39.5313 12.0541 40.723 13.75 41.2959C18.1958 42.8084 22.8708 43.5417 27.5458 43.5417C32.2208 43.5417 36.8958 42.8084 41.3416 41.3188C42.9458 40.7917 44.1833 39.5771 44.7791 37.9959C45.375 36.4146 45.2145 34.673 44.3208 33.2063Z" fill="#191E31"/>
<path d="M33.9855 45.8563C33.023 48.5146 30.4793 50.4167 27.5001 50.4167C25.6897 50.4167 23.9022 49.6834 22.6418 48.3771C21.9084 47.6896 21.3584 46.773 21.0376 45.8334C21.3355 45.8792 21.6334 45.9021 21.9543 45.948C22.4813 46.0167 23.0313 46.0855 23.5813 46.1313C24.8876 46.2459 26.2168 46.3146 27.5459 46.3146C28.8522 46.3146 30.1584 46.2459 31.4418 46.1313C31.923 46.0855 32.4043 46.0625 32.8626 45.9938C33.2293 45.948 33.5959 45.9021 33.9855 45.8563Z" fill="#191E31"/>
</svg>
