<svg width="37" height="48" viewBox="0 0 37 48" fill="none" xmlns="http://www.w3.org/2000/svg">
<path d="M33.1375 -0.000244141H11.8863C10.1158 -0.000244141 8.66675 1.44746 8.66675 3.2193V44.4455C8.66675 46.2174 10.1158 47.6664 11.8863 47.6664H33.1375C34.9079 47.6664 36.357 46.2201 36.357 44.4469V3.2193C36.357 1.44746 34.9079 -0.000244141 33.1375 -0.000244141ZM19.1126 2.32044H25.9112C26.1264 2.32044 26.3007 2.49477 26.3007 2.71131C26.3007 2.92649 26.1264 3.10081 25.9112 3.10081H19.1126C18.8974 3.10081 18.7231 2.92649 18.7231 2.71131C18.7231 2.49477 18.8974 2.32044 19.1126 2.32044ZM22.5119 46.0567C21.6225 46.0567 20.9021 45.3362 20.9021 44.4455C20.9021 43.5548 21.6225 42.8357 22.5119 42.8357C23.4012 42.8357 24.1216 43.5548 24.1216 44.4455C24.1216 45.3362 23.4012 46.0567 22.5119 46.0567ZM34.1167 41.7081H10.9071V5.10554H34.1167V41.7081Z" fill="#29323B"/>
<rect x="0.866699" y="15.5999" width="18.2" height="17.3333" rx="8.66667" fill="#F9F9F9"/>
<path d="M9.53347 28.5169C10.2486 28.5169 10.8284 27.9371 10.8284 27.2219C10.8284 26.5068 10.2486 25.927 9.53347 25.927C8.81829 25.927 8.23853 26.5068 8.23853 27.2219C8.23853 27.9371 8.81829 28.5169 9.53347 28.5169Z" fill="#29323B"/>
<path d="M14.5224 22.3044V21.3114C14.5224 19.1664 14.006 16.3223 9.53331 16.3223C5.06059 16.3223 4.5442 19.1664 4.5442 21.3114V22.3044C2.31976 22.5825 1.58887 23.7106 1.58887 26.4832V27.9609C1.58887 31.2181 2.58192 32.2112 5.83914 32.2112H13.2275C16.4847 32.2112 17.4778 31.2181 17.4778 27.9609V26.4832C17.4778 23.7106 16.7469 22.5825 14.5224 22.3044ZM9.53331 29.6213C8.20659 29.6213 7.13409 28.5408 7.13409 27.222C7.13409 25.8953 8.21453 24.8228 9.53331 24.8228C10.8521 24.8228 11.9325 25.9033 11.9325 27.222C11.9325 28.5488 10.86 29.6213 9.53331 29.6213ZM5.83914 22.2329C5.77559 22.2329 5.71998 22.2329 5.65642 22.2329V21.3114C5.65642 18.9837 6.31581 17.4345 9.53331 17.4345C12.7508 17.4345 13.4102 18.9837 13.4102 21.3114V22.2409C13.3466 22.2409 13.291 22.2409 13.2275 22.2409H5.83914V22.2329Z" fill="#29323B"/>
</svg>
