<svg width="28" height="48" viewBox="0 0 28 48" fill="none" xmlns="http://www.w3.org/2000/svg">
<path d="M24.4707 0H3.21954C1.44907 0 0 1.4477 0 3.21954V44.4458C0 46.2176 1.44907 47.6667 3.21954 47.6667H24.4707C26.2412 47.6667 27.6902 46.2203 27.6902 44.4471V3.21954C27.6902 1.4477 26.2412 0 24.4707 0ZM10.4458 2.32069H17.2444C17.4596 2.32069 17.6339 2.49501 17.6339 2.71155C17.6339 2.92673 17.4596 3.10106 17.2444 3.10106H10.4458C10.2306 3.10106 10.0563 2.92673 10.0563 2.71155C10.0563 2.49501 10.2306 2.32069 10.4458 2.32069ZM13.8451 46.0569C12.9558 46.0569 12.2354 45.3364 12.2354 44.4458C12.2354 43.5551 12.9558 42.836 13.8451 42.836C14.7344 42.836 15.4549 43.5551 15.4549 44.4458C15.4549 45.3364 14.7344 46.0569 13.8451 46.0569ZM25.4499 41.7083H2.24033V5.10578H25.4499V41.7083Z" fill="#29323B"/>
</svg>
