<svg width="38" height="38" viewBox="0 0 38 38" fill="none" xmlns="http://www.w3.org/2000/svg">
<path d="M19.1396 0C8.8084 0 0.389648 8.41875 0.389648 18.75C0.389648 29.0813 8.8084 37.5 19.1396 37.5C29.4709 37.5 37.8896 29.0813 37.8896 18.75C37.8896 8.41875 29.4709 0 19.1396 0ZM27.2959 25.4437C27.0334 25.8937 26.5646 26.1375 26.0771 26.1375C25.8334 26.1375 25.5896 26.0812 25.3646 25.9312L19.5521 22.4625C18.1084 21.6 17.0396 19.7062 17.0396 18.0375V10.35C17.0396 9.58125 17.6771 8.94375 18.4459 8.94375C19.2146 8.94375 19.8521 9.58125 19.8521 10.35V18.0375C19.8521 18.7125 20.4146 19.7062 20.9959 20.0437L26.8084 23.5125C27.4834 23.9062 27.7084 24.7687 27.2959 25.4437Z" fill="url(#paint0_linear_622_1576)"/>
<defs>
<linearGradient id="paint0_linear_622_1576" x1="5.90257" y1="-24.0234" x2="58.2754" y2="-21.8064" gradientUnits="userSpaceOnUse">
<stop stop-color="#6747E7"/>
<stop offset="1" stop-color="#00FFF0"/>
</linearGradient>
</defs>
</svg>
