<svg width="24" height="26" viewBox="0 0 24 26" fill="none" xmlns="http://www.w3.org/2000/svg">
<path d="M19.5187 17.0085C18.0627 17.0085 16.769 17.7161 15.9628 18.8052L9.02239 15.2584C9.13883 14.8628 9.20161 14.4444 9.20161 14.0117C9.20161 13.4255 9.0867 12.8658 8.87864 12.3534L16.1526 7.98301C16.9643 8.93562 18.172 9.54094 19.5187 9.54094C21.9567 9.54094 23.9403 7.55741 23.9403 5.11935C23.9403 2.68128 21.9567 0.697754 19.5187 0.697754C17.0806 0.697754 15.0971 2.68128 15.0971 5.11935C15.0971 5.68285 15.2032 6.22194 15.3963 6.718L8.10407 11.0993C7.29306 10.1748 6.1036 9.59007 4.78002 9.59007C2.34195 9.59007 0.358429 11.5736 0.358429 14.0117C0.358429 16.4497 2.34195 18.4333 4.78002 18.4333C6.25988 18.4333 7.57211 17.7024 8.37512 16.5828L15.2954 20.1193C15.1665 20.5337 15.0971 20.9739 15.0971 21.4301C15.0971 23.8682 17.0806 25.8517 19.5187 25.8517C21.9567 25.8517 23.9403 23.8682 23.9403 21.4301C23.9403 18.992 21.9567 17.0085 19.5187 17.0085ZM19.5187 2.17162C21.144 2.17162 22.4664 3.49397 22.4664 5.11935C22.4664 6.74472 21.144 8.06707 19.5187 8.06707C17.8933 8.06707 16.5709 6.74472 16.5709 5.11935C16.5709 3.49397 17.8933 2.17162 19.5187 2.17162ZM4.78002 16.9594C3.15464 16.9594 1.83229 15.637 1.83229 14.0117C1.83229 12.3863 3.15464 11.0639 4.78002 11.0639C6.4054 11.0639 7.72775 12.3863 7.72775 14.0117C7.72775 15.637 6.4054 16.9594 4.78002 16.9594ZM19.5187 24.3778C17.8933 24.3778 16.5709 23.0555 16.5709 21.4301C16.5709 19.8047 17.8933 18.4824 19.5187 18.4824C21.144 18.4824 22.4664 19.8047 22.4664 21.4301C22.4664 23.0555 21.144 24.3778 19.5187 24.3778Z" fill="white"/>
</svg>
