<svg width="31" height="38" viewBox="0 0 31 38" fill="none" xmlns="http://www.w3.org/2000/svg">
<path fill-rule="evenodd" clip-rule="evenodd" d="M1.23473 27.6958C2.43742 30.1212 4.32722 32.1553 6.21709 34.1113C8.67242 36.062 11.5725 37.0868 14.6663 37.3969C15.1906 37.4794 15.71 37.5098 16.2199 37.4931C17.7278 37.5308 19.2706 37.4129 20.8206 37.1624C23.8272 36.2236 26.5761 34.5024 28.2941 32.0771C29.7544 30.0429 30.4416 27.5394 30.7853 25.114C31.043 22.9233 31.1288 20.6545 30.6993 18.4639C30.2699 16.2732 29.4108 14.552 27.8646 12.8308C28.294 14.3173 28.0363 15.882 27.5209 17.3686C27.0903 18.6105 26.4198 19.7432 25.76 20.858C25.63 21.0775 25.5005 21.2963 25.3733 21.5151C25.2874 18.9333 23.9129 16.5862 22.4526 14.3173C22.1995 13.924 21.9411 13.533 21.683 13.1423C20.4522 11.2795 19.2261 9.42381 18.587 7.35428C17.8139 4.85066 18.0716 1.87768 20.0473 0C16.0959 1.33 12.3161 3.28602 9.56728 6.25899C6.81844 9.23196 5.44397 13.3003 6.30302 17.0557C4.84271 15.5691 4.06959 13.535 4.24137 11.5791C2.26556 13.8479 0.891177 16.508 0.289834 19.3245C-0.311509 22.141 0.0321268 25.114 1.23473 27.6958ZM23.1881 25.917C23.526 29.1143 22.6671 31.4543 21.0384 32.7816C21.8974 30.9039 21.2961 28.7133 20.2653 26.8356C19.6714 25.7989 18.935 24.8142 18.2038 23.8365C17.6659 23.1171 17.1307 22.4016 16.6574 21.672C15.5406 19.8725 14.6816 17.8383 15.1971 15.8042C13.1354 17.2125 11.6751 19.3249 11.0737 21.5937C10.4724 23.8625 10.816 26.3662 11.9328 28.4786C10.6443 27.618 9.69937 26.2097 9.61344 24.7232C8.23897 26.2097 7.38 28.1656 7.46585 30.1215C7.46593 33.1728 10.1289 35.911 13.1355 37.0063C13.6476 37.1883 14.1592 37.317 14.6663 37.3969C15.1792 37.4483 15.6975 37.48 16.2199 37.4931C22.0005 37.3032 26.5659 31.0533 23.2719 26.0532C23.2719 26.0141 23.2504 25.9945 23.2289 25.9749C23.2115 25.9591 23.1941 25.9432 23.1881 25.917ZM23.186 25.8967C23.1867 25.9035 23.1874 25.9102 23.1881 25.917C23.1867 25.9108 23.186 25.9041 23.186 25.8967Z" fill="white"/>
</svg>
